<svg width="47" height="47" viewBox="0 0 47 47" fill="none" xmlns="http://www.w3.org/2000/svg">
<g clip-path="url(#clip0_1_2223)">
<path d="M24.4775 23.1191L28.6197 18.9865C28.8011 18.8051 28.903 18.5591 28.903 18.3026C28.903 18.046 28.8011 17.8 28.6197 17.6186C28.4383 17.4372 28.1923 17.3353 27.9358 17.3353C27.6792 17.3353 27.4332 17.4372 27.2518 17.6186L23.1193 21.7608L18.9867 17.6186C18.8053 17.4372 18.5593 17.3353 18.3028 17.3353C18.0462 17.3353 17.8002 17.4372 17.6188 17.6186C17.4374 17.8 17.3355 18.046 17.3355 18.3026C17.3355 18.5591 17.4374 18.8051 17.6188 18.9865L21.761 23.1191L17.6188 27.2517C17.5285 27.3412 17.4569 27.4477 17.4079 27.5651C17.359 27.6825 17.3339 27.8084 17.3339 27.9356C17.3339 28.0628 17.359 28.1887 17.4079 28.3061C17.4569 28.4234 17.5285 28.53 17.6188 28.6195C17.7084 28.7098 17.8149 28.7815 17.9323 28.8304C18.0497 28.8793 18.1756 28.9045 18.3028 28.9045C18.4299 28.9045 18.5558 28.8793 18.6732 28.8304C18.7906 28.7815 18.8971 28.7098 18.9867 28.6195L23.1193 24.4773L27.2518 28.6195C27.3414 28.7098 27.4479 28.7815 27.5653 28.8304C27.6827 28.8793 27.8086 28.9045 27.9358 28.9045C28.0629 28.9045 28.1889 28.8793 28.3062 28.8304C28.4236 28.7815 28.5302 28.7098 28.6197 28.6195C28.71 28.53 28.7817 28.4234 28.8306 28.3061C28.8795 28.1887 28.9047 28.0628 28.9047 27.9356C28.9047 27.8084 28.8795 27.6825 28.8306 27.5651C28.7817 27.4477 28.71 27.3412 28.6197 27.2517L24.4775 23.1191Z" fill="#111111"/>
</g>
<defs>
<clipPath id="clip0_1_2223">
<rect width="23.1193" height="23.1193" fill="white" transform="translate(11.5597 11.5596)"/>
</clipPath>
</defs>
</svg>
