<svg width="40" height="6" viewBox="0 0 40 6" fill="none" xmlns="http://www.w3.org/2000/svg">
<path d="M33.4217 2.78341C33.4127 2.25693 33.5744 1.73993 33.8864 1.29817C34.1983 0.856405 34.6463 0.509843 35.1732 0.302663C35.7002 0.0954826 36.2824 0.0369958 36.8457 0.13468C37.409 0.232365 37.928 0.481836 38.3365 0.851247C38.7449 1.22066 39.0244 1.69331 39.1396 2.20914C39.2547 2.72496 39.2002 3.2606 38.9829 3.74785C38.7656 4.2351 38.3953 4.65194 37.9193 4.94532C37.4433 5.2387 36.883 5.39534 36.3098 5.39533C35.5497 5.4007 34.8185 5.12859 34.2769 4.63878C33.7353 4.14896 33.4277 3.48155 33.4217 2.78341V2.78341ZM22.5962 2.78341C22.5872 2.25693 22.749 1.73993 23.0609 1.29817C23.3728 0.856405 23.8208 0.509843 24.3478 0.302663C24.8747 0.0954826 25.4569 0.0369958 26.0202 0.13468C26.5835 0.232365 27.1023 0.481836 27.5108 0.851247C27.9192 1.22066 28.199 1.69331 28.3141 2.20914C28.4292 2.72496 28.3745 3.2606 28.1572 3.74785C27.9399 4.2351 27.5699 4.65194 27.0938 4.94532C26.6178 5.2387 26.0575 5.39534 25.4843 5.39533C24.7242 5.4007 23.993 5.12859 23.4514 4.63878C22.9098 4.14896 22.6022 3.48155 22.5962 2.78341V2.78341ZM11.7665 2.78341C11.7576 2.25693 11.9193 1.73993 12.2312 1.29817C12.5432 0.856405 12.9911 0.509843 13.5181 0.302663C14.0451 0.0954826 14.6273 0.0369958 15.1905 0.13468C15.7538 0.232365 16.2728 0.481836 16.6813 0.851247C17.0898 1.22066 17.3693 1.69331 17.4844 2.20914C17.5995 2.72496 17.545 3.2606 17.3277 3.74785C17.1104 4.2351 16.7402 4.65194 16.2642 4.94532C15.7882 5.2387 15.2278 5.39534 14.6546 5.39533C13.8946 5.4007 13.1634 5.12859 12.6218 4.63878C12.0802 4.14896 11.7725 3.48155 11.7665 2.78341V2.78341ZM0.941026 2.78341C0.932078 2.25693 1.09382 1.73993 1.40575 1.29817C1.71768 0.856405 2.16562 0.509843 2.69261 0.302663C3.2196 0.0954826 3.80178 0.0369958 4.36506 0.13468C4.92834 0.232365 5.44734 0.481836 5.85582 0.851247C6.2643 1.22066 6.54381 1.69331 6.65892 2.20914C6.77404 2.72496 6.71954 3.2606 6.50223 3.74785C6.28493 4.2351 5.91471 4.65194 5.4387 4.94532C4.9627 5.2387 4.40236 5.39534 3.82913 5.39533C3.06909 5.4007 2.33791 5.12859 1.79629 4.63878C1.25467 4.14896 0.947036 3.48155 0.941026 2.78341V2.78341Z" fill="white"/>
</svg>
