<svg width="43" height="39" viewBox="0 0 43 39" fill="none" xmlns="http://www.w3.org/2000/svg">
<rect x="0.0670166" y="0.0655518" width="42.9009" height="38.1341" rx="9.53353" fill="white"/>
<g clip-path="url(#clip0_1_1017)">
<path d="M28.9359 13.4688C28.8081 13.3935 28.6508 13.3883 28.5182 13.4548C28.3858 13.5216 28.2963 13.6509 28.2805 13.7983C28.2648 13.9416 28.2403 14.0849 28.2097 14.2353C27.3542 18.118 25.636 20.0065 22.9558 20.0065H19.0232C18.8158 20.0069 18.6373 20.1529 18.5959 20.3561L17.285 26.5005L17.0508 28.0648C16.9162 28.7762 17.3837 29.462 18.095 29.5966C18.1734 29.6115 18.253 29.6191 18.3328 29.6195H20.9633C21.5662 29.6213 22.0918 29.2099 22.2348 28.6241L23.2975 24.3761H25.5775C28.2682 24.3761 30.1279 22.2306 30.8139 18.3348C31.2667 16.4797 30.5176 14.5387 28.9359 13.4688Z" fill="#03A9F4"/>
<path d="M28.1126 10.2031C27.2492 9.22373 26.0101 8.65752 24.7044 8.64584H17.4685C16.3856 8.64003 15.4637 9.43232 15.3065 10.5037L13.0597 25.4921C12.9521 26.208 13.4451 26.8756 14.1611 26.9833C14.226 26.9931 14.2917 26.9979 14.3574 26.9979H17.7132C17.9206 26.9975 18.0991 26.8514 18.1405 26.6483L19.3771 20.8805H22.9602C26.0695 20.8805 28.1241 18.7071 29.0679 14.4136C29.1058 14.2425 29.135 14.0695 29.1553 13.8954C29.3743 12.5708 28.9922 11.2175 28.1126 10.2031Z" fill="#283593"/>
</g>
<defs>
<clipPath id="clip0_1_1017">
<rect width="20.9738" height="20.9738" fill="white" transform="translate(11.5073 8.64575)"/>
</clipPath>
</defs>
</svg>
