<svg width="43" height="40" viewBox="0 0 43 40" fill="none" xmlns="http://www.w3.org/2000/svg">
<rect x="0.0670166" y="0.934387" width="42.9009" height="38.1341" rx="9.53353" fill="white"/>
<g clip-path="url(#clip0_1_1029)">
<path d="M29.4733 23.1326C29.404 23.0254 29.2913 22.9539 29.1648 22.9368C27.5008 22.7195 26.328 21.1943 26.5454 19.5303C26.6989 18.3549 27.522 17.3761 28.6536 17.0231C28.8834 16.9495 29.01 16.7035 28.9364 16.4737C28.9249 16.4379 28.9089 16.4038 28.8887 16.3721C28.1251 14.994 26.7673 14.0462 25.2105 13.8046C24.4259 13.842 23.6528 14.0076 22.9217 14.2948C22.3967 14.5061 21.8423 14.6355 21.2779 14.6784C20.7135 14.6355 20.1591 14.5061 19.6341 14.2948C18.9031 14.0076 18.1299 13.842 17.3454 13.8046C15.7138 13.8046 12.5389 16.1178 12.5389 20.3588C12.5389 24.3892 15.4787 29.5347 17.7823 29.5347C18.6613 29.5426 19.5297 29.3426 20.3166 28.951C20.613 28.7875 20.9406 28.6886 21.278 28.6608C21.6152 28.6886 21.9429 28.7875 22.2393 28.951C23.0262 29.3426 23.8946 29.5426 24.7736 29.5347C26.6 29.5347 28.6615 26.3992 29.5249 23.4935C29.5611 23.3715 29.5422 23.2396 29.4733 23.1326Z" fill="black"/>
<path d="M20.841 13.8046C23.4943 13.8017 25.6445 11.6515 25.6474 8.99818C25.6474 8.75686 25.4518 8.56122 25.2105 8.56122C22.5572 8.56413 20.4069 10.7143 20.4041 13.3676C20.404 13.609 20.5997 13.8046 20.841 13.8046Z" fill="black"/>
</g>
<defs>
<clipPath id="clip0_1_1029">
<rect width="20.9738" height="20.9738" fill="white" transform="translate(10.554 8.56122)"/>
</clipPath>
</defs>
</svg>
