<svg width="36" height="37" viewBox="0 0 36 37" fill="none" xmlns="http://www.w3.org/2000/svg">
<rect y="0.168152" width="36" height="36" rx="18" fill="white"/>
<path d="M17.5998 14.021L18.0002 14.5561L18.4005 14.021C18.9839 13.2412 19.9184 12.7348 20.9602 12.7348C22.7284 12.7348 24.1668 14.1753 24.1668 15.9615C24.1668 16.7004 24.049 17.3819 23.8444 18.0142L23.8434 18.0175C23.3525 19.5709 22.3445 20.8286 21.2484 21.7706C20.1502 22.7145 18.9922 23.3164 18.2524 23.5681L18.2524 23.5681L18.2471 23.57C18.2039 23.5852 18.1144 23.6015 18.0002 23.6015C17.8859 23.6015 17.7964 23.5852 17.7532 23.57L17.7533 23.5699L17.7479 23.5681C17.0081 23.3164 15.8502 22.7145 14.7519 21.7706C13.6558 20.8286 12.6478 19.5709 12.1569 18.0175L12.1569 18.0175L12.1559 18.0142C11.9513 17.3819 11.8335 16.7004 11.8335 15.9615C11.8335 14.1753 13.272 12.7348 15.0402 12.7348C16.0819 12.7348 17.0164 13.2412 17.5998 14.021Z" fill="#3E63F4" stroke="#3E63F4"/>
</svg>
