<svg width="20" height="20" viewBox="0 0 20 20" fill="none" xmlns="http://www.w3.org/2000/svg">
<path d="M10.0001 19.0084C9.42508 19.0084 8.88341 18.7167 8.50008 18.2084L7.25008 16.5417C7.22508 16.5084 7.12508 16.4667 7.08342 16.4584H6.66675C3.19175 16.4584 1.04175 15.5167 1.04175 10.8334V6.66669C1.04175 2.98335 2.98341 1.04169 6.66675 1.04169H13.3334C17.0167 1.04169 18.9584 2.98335 18.9584 6.66669V10.8334C18.9584 14.5167 17.0167 16.4584 13.3334 16.4584H12.9167C12.8501 16.4584 12.7917 16.4917 12.7501 16.5417L11.5001 18.2084C11.1167 18.7167 10.5751 19.0084 10.0001 19.0084ZM6.66675 2.29169C3.68341 2.29169 2.29175 3.68335 2.29175 6.66669V10.8334C2.29175 14.6 3.58341 15.2084 6.66675 15.2084H7.08342C7.50842 15.2084 7.99175 15.45 8.25008 15.7917L9.50008 17.4584C9.79175 17.8417 10.2084 17.8417 10.5001 17.4584L11.7501 15.7917C12.0251 15.425 12.4584 15.2084 12.9167 15.2084H13.3334C16.3167 15.2084 17.7084 13.8167 17.7084 10.8334V6.66669C17.7084 3.68335 16.3167 2.29169 13.3334 2.29169H6.66675Z" fill="#111111"/>
<path d="M10.0001 9.99998C9.53341 9.99998 9.16675 9.62498 9.16675 9.16665C9.16675 8.70831 9.54175 8.33331 10.0001 8.33331C10.4584 8.33331 10.8334 8.70831 10.8334 9.16665C10.8334 9.62498 10.4667 9.99998 10.0001 9.99998Z" fill="#111111"/>
<path d="M13.3333 9.99998C12.8667 9.99998 12.5 9.62498 12.5 9.16665C12.5 8.70831 12.875 8.33331 13.3333 8.33331C13.7917 8.33331 14.1667 8.70831 14.1667 9.16665C14.1667 9.62498 13.8 9.99998 13.3333 9.99998Z" fill="#111111"/>
<path d="M6.66659 9.99998C6.19992 9.99998 5.83325 9.62498 5.83325 9.16665C5.83325 8.70831 6.20825 8.33331 6.66659 8.33331C7.12492 8.33331 7.49992 8.70831 7.49992 9.16665C7.49992 9.62498 7.13325 9.99998 6.66659 9.99998Z" fill="#111111"/>
</svg>
