<svg width="24" height="24" viewBox="0 0 24 24" fill="none" xmlns="http://www.w3.org/2000/svg">
<path d="M9.3 21H14.7C19.2 21 21 19.2 21 14.7V9.3C21 4.8 19.2 3 14.7 3H9.3C4.8 3 3 4.8 3 9.3V14.7C3 19.2 4.8 21 9.3 21Z" stroke="#3E63F4" stroke-width="1.5" stroke-linecap="round" stroke-linejoin="round"/>
<path fill-rule="evenodd" clip-rule="evenodd" d="M10.9725 14.7253C10.7908 14.7253 10.6071 14.6584 10.4682 14.5236L8.20911 12.3484C7.9303 12.0798 7.9303 11.6453 8.20911 11.3767C8.48793 11.1081 8.93898 11.1081 9.21779 11.3767L10.9725 13.0652L14.9844 9.20144C15.2632 8.93285 15.7143 8.93285 15.9931 9.20144C16.2719 9.47002 16.2719 9.90452 15.9931 10.1731L11.4769 14.5236C11.3379 14.6584 11.1552 14.7253 10.9725 14.7253Z" fill="#3E63F4"/>
</svg>
