<svg width="16" height="16" viewBox="0 0 16 16" fill="none" xmlns="http://www.w3.org/2000/svg">
<mask id="path-1-inside-1_1_1705" fill="white">
<path fill-rule="evenodd" clip-rule="evenodd" d="M0.75 5C0.75 3.89543 1.64543 3 2.75 3H13.25C14.3546 3 15.25 3.89543 15.25 5V7C14.6977 7 14.25 7.44772 14.25 8C14.25 8.55228 14.6977 9 15.25 9V11C15.25 12.1046 14.3546 13 13.25 13H2.75C1.64543 13 0.75 12.1046 0.75 11V9C1.30228 9 1.75 8.55228 1.75 8C1.75 7.44772 1.30228 7 0.75 7V5Z"/>
</mask>
<path d="M15.25 7V8.5H16.75V7H15.25ZM15.25 9H16.75V7.5H15.25V9ZM0.75 9V7.5H-0.75V9H0.75ZM0.75 7H-0.75V8.5H0.75V7ZM2.75 1.5C0.817003 1.5 -0.75 3.067 -0.75 5H2.25C2.25 4.72386 2.47386 4.5 2.75 4.5V1.5ZM13.25 1.5H2.75V4.5H13.25V1.5ZM16.75 5C16.75 3.067 15.183 1.5 13.25 1.5V4.5C13.5261 4.5 13.75 4.72386 13.75 5H16.75ZM16.75 7V5H13.75V7H16.75ZM15.75 8C15.75 8.27614 15.5261 8.5 15.25 8.5V5.5C13.8693 5.5 12.75 6.61929 12.75 8H15.75ZM15.25 7.5C15.5261 7.5 15.75 7.72386 15.75 8H12.75C12.75 9.38071 13.8693 10.5 15.25 10.5V7.5ZM16.75 11V9H13.75V11H16.75ZM13.25 14.5C15.183 14.5 16.75 12.933 16.75 11H13.75C13.75 11.2761 13.5261 11.5 13.25 11.5V14.5ZM2.75 14.5H13.25V11.5H2.75V14.5ZM-0.75 11C-0.75 12.933 0.817004 14.5 2.75 14.5V11.5C2.47386 11.5 2.25 11.2761 2.25 11H-0.75ZM-0.75 9V11H2.25V9H-0.75ZM0.25 8C0.25 7.72386 0.473858 7.5 0.75 7.5V10.5C2.13071 10.5 3.25 9.38071 3.25 8H0.25ZM0.75 8.5C0.473858 8.5 0.25 8.27614 0.25 8H3.25C3.25 6.61929 2.13071 5.5 0.75 5.5V8.5ZM-0.75 5V7H2.25V5H-0.75Z" fill="#767676" mask="url(#path-1-inside-1_1_1705)"/>
<path d="M5.25 12.5L5.25 3.5" stroke="#767676" stroke-width="1.5" stroke-dasharray="2 1.5"/>
</svg>
